ground reactions
version=1
nRows=44
nColumns=19
inDegrees=no
endheader
time	ground_force_l_vx	ground_force_l_vy	ground_force_l_vz	ground_force_l_px	ground_force_l_py	ground_force_l_pz	ground_torque_l_x	ground_torque_l_y	ground_torque_l_z	ground_force_r_vx	ground_force_r_vy	ground_force_r_vz	ground_force_r_px	ground_force_r_py	ground_force_r_pz	ground_torque_r_x	ground_torque_r_y	ground_torque_r_z
1.740000	-0.000000	0.000000	-0.000000	-0.000000	-0.000000	0.000000	0.000000	0.000000	0.000000	9.860044	637.391921	-39.869826	1.135964	0.000000	-0.375777	0.000000	1.956822	0.000000
1.740500	-0.000000	0.000000	-0.000000	-0.000000	-0.000000	0.000000	0.000000	0.000000	0.000000	9.929421	637.420414	-39.896009	1.135600	0.000000	-0.375779	0.000000	1.958770	0.000000
1.741000	-0.000000	0.000000	-0.000000	-0.000000	-0.000000	0.000000	0.000000	0.000000	0.000000	9.997521	637.454505	-39.924030	1.135236	0.000000	-0.375780	0.000000	1.960771	0.000000
1.741500	-0.000000	0.000000	-0.000000	-0.000000	-0.000000	0.000000	0.000000	0.000000	0.000000	10.064350	637.494263	-39.953829	1.134873	0.000000	-0.375781	0.000000	1.962838	0.000000
1.742000	-0.000000	0.000000	-0.000000	-0.000000	-0.000000	0.000000	0.000000	0.000000	0.000000	10.129918	637.539759	-39.985345	1.134510	0.000000	-0.375781	0.000000	1.964984	0.000000
1.742500	-0.000000	0.000000	-0.000000	-0.000000	-0.000000	0.000000	0.000000	0.000000	0.000000	10.194237	637.591055	-40.018516	1.134148	0.000000	-0.375780	0.000000	1.967223	0.000000
1.743000	-0.000000	0.000000	-0.000000	-0.000000	-0.000000	0.000000	0.000000	0.000000	0.000000	10.257322	637.648214	-40.053282	1.133786	0.000000	-0.375779	0.000000	1.969568	0.000000
1.743500	-0.000000	0.000000	-0.000000	-0.000000	-0.000000	0.000000	0.000000	0.000000	0.000000	10.319193	637.711291	-40.089579	1.133424	0.000000	-0.375777	0.000000	1.972032	0.000000
1.744000	-0.000000	0.000000	-0.000000	-0.000000	-0.000000	0.000000	0.000000	0.000000	0.000000	10.379873	637.780339	-40.127344	1.133063	0.000000	-0.375775	0.000000	1.974627	0.000000
1.744500	-0.000000	0.000000	-0.000000	-0.000000	-0.000000	0.000000	0.000000	0.000000	0.000000	10.439387	637.855405	-40.166512	1.132703	0.000000	-0.375772	0.000000	1.977367	0.000000
1.745000	-0.000000	0.000000	-0.000000	-0.000000	-0.000000	0.000000	0.000000	0.000000	0.000000	10.497765	637.936536	-40.207017	1.132343	0.000000	-0.375768	0.000000	1.980265	0.000000
1.745500	-0.000000	0.000000	-0.000000	-0.000000	-0.000000	0.000000	0.000000	0.000000	0.000000	10.555040	638.023769	-40.248791	1.131984	0.000000	-0.375764	0.000000	1.983334	0.000000
1.746000	-0.000000	0.000000	-0.000000	-0.000000	-0.000000	0.000000	0.000000	0.000000	0.000000	10.611247	638.117141	-40.291768	1.131624	0.000000	-0.375759	0.000000	1.986586	0.000000
1.746500	-0.000000	0.000000	-0.000000	-0.000000	-0.000000	0.000000	0.000000	0.000000	0.000000	10.666427	638.216685	-40.335877	1.131266	0.000000	-0.375754	0.000000	1.990033	0.000000
1.747000	-0.000000	0.000000	-0.000000	-0.000000	-0.000000	0.000000	0.000000	0.000000	0.000000	10.720622	638.322426	-40.381046	1.130908	0.000000	-0.375748	0.000000	1.993688	0.000000
1.747500	-0.000000	0.000000	-0.000000	-0.000000	-0.000000	0.000000	0.000000	0.000000	0.000000	10.773877	638.434388	-40.427204	1.130550	0.000000	-0.375742	0.000000	1.997562	0.000000
1.748000	-0.000000	0.000000	-0.000000	-0.000000	-0.000000	0.000000	0.000000	0.000000	0.000000	10.826243	638.552590	-40.474275	1.130192	0.000000	-0.375735	0.000000	2.001668	0.000000
1.748500	-0.000000	0.000000	-0.000000	-0.000000	-0.000000	0.000000	0.000000	0.000000	0.000000	10.877771	638.677048	-40.522185	1.129835	0.000000	-0.375728	0.000000	2.006017	0.000000
1.749000	-0.000000	0.000000	-0.000000	-0.000000	-0.000000	0.000000	0.000000	0.000000	0.000000	10.928516	638.807771	-40.570855	1.129478	0.000000	-0.375720	0.000000	2.010619	0.000000
1.749500	-0.000000	0.000000	-0.000000	-0.000000	-0.000000	0.000000	0.000000	0.000000	0.000000	10.978535	638.944768	-40.620207	1.129122	0.000000	-0.375711	0.000000	2.015486	0.000000
1.750000	-0.000000	0.000000	-0.000000	-0.000000	-0.000000	0.000000	0.000000	0.000000	0.000000	11.027890	639.088040	-40.670160	1.128766	0.000000	-0.375703	0.000000	2.020628	0.000000
1.750500	-0.000000	0.000000	-0.000000	0.000000	0.000000	-0.000000	0.000000	0.000000	0.000000	11.076642	639.237586	-40.720631	1.128410	0.000000	-0.375694	0.000000	2.026055	0.000000
1.751000	-0.000000	0.000000	-0.000000	0.000000	0.000000	-0.000000	0.000000	0.000000	0.000000	11.124857	639.393403	-40.771538	1.128054	0.000000	-0.375684	0.000000	2.031777	0.000000
1.751500	-0.000000	0.000000	-0.000000	0.000000	0.000000	-0.000000	0.000000	0.000000	0.000000	11.172601	639.555481	-40.822793	1.127698	0.000000	-0.375674	0.000000	2.037803	0.000000
1.752000	-0.000000	0.000000	-0.000000	0.000000	0.000000	-0.000000	0.000000	0.000000	0.000000	11.219945	639.723809	-40.874311	1.127343	0.000000	-0.375664	0.000000	2.044141	0.000000
1.752500	-0.000000	0.000000	-0.000000	0.000000	0.000000	-0.000000	0.000000	0.000000	0.000000	11.266958	639.898371	-40.926004	1.126987	0.000000	-0.375653	0.000000	2.050801	0.000000
1.753000	-0.000000	0.000000	-0.000000	0.000000	0.000000	-0.000000	0.000000	0.000000	0.000000	11.313713	640.079147	-40.977781	1.126632	0.000000	-0.375642	0.000000	2.057789	0.000000
1.753500	-0.000000	0.000000	-0.000000	0.000000	0.000000	-0.000000	0.000000	0.000000	0.000000	11.360284	640.266115	-41.029553	1.126277	0.000000	-0.375631	0.000000	2.065113	0.000000
1.754000	-0.000000	0.000000	-0.000000	0.000000	0.000000	-0.000000	0.000000	0.000000	0.000000	11.406744	640.459250	-41.081228	1.125922	0.000000	-0.375619	0.000000	2.072780	0.000000
1.754500	-0.000000	0.000000	-0.000000	0.000000	0.000000	-0.000000	0.000000	0.000000	0.000000	11.453169	640.658523	-41.132714	1.125566	0.000000	-0.375607	0.000000	2.080796	0.000000
1.755000	-0.000000	0.000000	-0.000000	0.000000	0.000000	-0.000000	0.000000	0.000000	0.000000	11.499636	640.863901	-41.183917	1.125211	0.000000	-0.375595	0.000000	2.089167	0.000000
1.755500	-0.000000	0.000000	-0.000000	0.000000	0.000000	-0.000000	0.000000	0.000000	0.000000	11.546220	641.075351	-41.234744	1.124855	0.000000	-0.375583	0.000000	2.097899	0.000000
1.756000	-0.000000	0.000000	-0.000000	0.000000	0.000000	-0.000000	0.000000	0.000000	0.000000	11.592997	641.292833	-41.285102	1.124500	0.000000	-0.375571	0.000000	2.106995	0.000000
1.756500	-0.000000	0.000000	-0.000000	0.000000	0.000000	-0.000000	0.000000	0.000000	0.000000	11.640044	641.516308	-41.334896	1.124144	0.000000	-0.375558	0.000000	2.116459	0.000000
1.757000	-0.000000	-0.000000	-0.000000	0.000000	0.000000	-0.000000	0.000000	0.000000	0.000000	11.687436	641.745732	-41.384033	1.123788	0.000000	-0.375546	0.000000	2.126297	0.000000
1.757500	-0.000000	-0.000000	-0.000000	0.000000	0.000000	-0.000000	0.000000	0.000000	0.000000	11.735248	641.981059	-41.432419	1.123431	0.000000	-0.375533	0.000000	2.136509	0.000000
1.758000	-0.000000	-0.000000	-0.000000	0.000000	0.000000	-0.000000	0.000000	0.000000	0.000000	11.783553	642.222240	-41.479961	1.123075	0.000000	-0.375520	0.000000	2.147098	0.000000
1.758500	-0.000000	-0.000000	0.000000	0.000000	0.000000	-0.000000	0.000000	0.000000	0.000000	11.832425	642.469225	-41.526568	1.122718	0.000000	-0.375507	0.000000	2.158067	0.000000
1.759000	-0.000000	-0.000000	0.000000	0.000000	0.000000	-0.000000	0.000000	0.000000	0.000000	11.881935	642.721959	-41.572147	1.122360	0.000000	-0.375494	0.000000	2.169416	0.000000
1.759500	-0.000000	-0.000000	0.000000	0.000000	0.000000	-0.000000	0.000000	0.000000	0.000000	11.932152	642.980388	-41.616609	1.122002	0.000000	-0.375481	0.000000	2.181145	0.000000
1.760000	-0.000000	-0.000000	0.000000	0.000000	0.000000	-0.000000	0.000000	0.000000	0.000000	11.983144	643.244451	-41.659867	1.121644	0.000000	-0.375468	0.000000	2.193254	0.000000
1.760500	-0.000000	-0.000000	0.000000	0.000000	0.000000	-0.000000	0.000000	0.000000	0.000000	12.034976	643.514090	-41.701832	1.121285	0.000000	-0.375454	0.000000	2.205742	0.000000
1.761000	-0.000000	-0.000000	0.000000	0.000000	0.000000	-0.000000	0.000000	0.000000	0.000000	12.087711	643.789240	-41.742421	1.120926	0.000000	-0.375441	0.000000	2.218609	0.000000
1.761500	-0.000000	-0.000000	0.000000	0.000000	0.000000	-0.000000	0.000000	0.000000	0.000000	12.141410	644.069836	-41.781551	1.120566	0.000000	-0.375428	0.000000	2.231851	0.000000
